
<svg version="1.1" preserveAspectRatio="none" xmlns="http://www.w3.org/2000/svg" width="500" height="500" viewBox="0 0 500 500"><svg viewBox="296.4027 117.2268 338.5973 109.4576" width="417" height="134.8026673573593" x="41.5px" y="182.5987px" xmlns="http://www.w3.org/2000/svg" xmlns:xlink="http://www.w3.org/1999/xlink" preserveAspectRatio="none"><defs></defs><style>.aMcvEAJD5Dcolors-08b831a96-215e-41f5-89f5-fbe7b38847cb {fill:#FFFFFF;fill-opacity:1;}.aMcvEAJD5Dcolors-18b831a96-215e-41f5-89f5-fbe7b38847cb {fill:#4D4D4D;fill-opacity:1;}.aQKwHqDYJ90filter-floo8b831a96-215e-41f5-89f5-fbe7b38847cb {flood-color:#4D4D4D;flood-opacity:0.5;}.companyName8b831a96-215e-41f5-89f5-fbe7b38847cb {fill:#4D4D4D;fill-opacity:1;}.icon3-str8b831a96-215e-41f5-89f5-fbe7b38847cb {stroke:#FFAE78;stroke-opacity:1;}.icon38b831a96-215e-41f5-89f5-fbe7b38847cb {fill:#FFAE78;fill-opacity:1;}.icon48b831a96-215e-41f5-89f5-fbe7b38847cb {fill:#FF834F;fill-opacity:1;}.icon58b831a96-215e-41f5-89f5-fbe7b38847cb {fill:#FF4949;fill-opacity:1;}.icon68b831a96-215e-41f5-89f5-fbe7b38847cb {fill:#FFAE78;fill-opacity:1;}.icon78b831a96-215e-41f5-89f5-fbe7b38847cb {fill:#FF834F;fill-opacity:1;}.icon88b831a96-215e-41f5-89f5-fbe7b38847cb {fill:#FF4949;fill-opacity:1;}.text8b831a96-215e-41f5-89f5-fbe7b38847cb {fill:#4D4D4D;fill-opacity:1;}</style><defs>
      <filter
        x="370.005"
        y="204.6844"
        width="119.3768"
        height="22"
        id="8b831a96-215e-41f5-89f5-fbe7b38847cbQKwHqDYJ9"
        filterUnits="userSpaceOnUse"
        primitiveUnits="userSpaceOnUse"
        color-interpolation-filters="sRGB">
        <feMerge><feMergeNode in="SourceGraphic" /></feMerge>
      </filter></defs><g opacity="1" transform="rotate(0 370.005 204.6844)">
<svg width="119.3768" height="22" x="370.005" y="204.6844" version="1.1" preserveAspectRatio="none" viewBox="3.76 -30.88 169.08 31.16">
  <g transform="matrix(1 0 0 1 0 0)" class="text8b831a96-215e-41f5-89f5-fbe7b38847cb"><path id="id-8b831a96-215e-41f5-89f5-fbe7b38847cb6izo4zJp7" d="M23.60-14.56Q25.92-13.80 27.28-12.02Q28.64-10.24 28.64-7.60L28.64-7.60Q28.64-3.96 25.84-1.98Q23.04 0 17.68 0L17.68 0L3.76 0L3.76-28L16.88-28Q21.84-28 24.52-26.06Q27.20-24.12 27.20-20.72L27.20-20.72Q27.20-18.64 26.24-17.04Q25.28-15.44 23.60-14.56L23.60-14.56ZM16.32-23.92L8.96-23.92L8.96-16.20L16.32-16.20Q19.04-16.20 20.50-17.18Q21.96-18.16 21.96-20.04L21.96-20.04Q21.96-21.96 20.50-22.94Q19.04-23.92 16.32-23.92L16.32-23.92ZM17.36-4.08Q23.40-4.08 23.40-8.12L23.40-8.12Q23.40-12.16 17.36-12.16L17.36-12.16L8.96-12.16L8.96-4.08L17.36-4.08Z M49.84-21.60Q53.88-21.60 56.32-19.24Q58.76-16.88 58.76-12.24L58.76-12.24L58.76 0L53.76 0L53.76-11.60Q53.76-14.40 52.44-15.82Q51.12-17.24 48.68-17.24L48.68-17.24Q45.92-17.24 44.32-15.58Q42.72-13.92 42.72-10.80L42.72-10.80L42.72 0L37.72 0L37.72-29.68L42.72-29.68L42.72-18.88Q43.96-20.20 45.78-20.90Q47.60-21.60 49.84-21.60L49.84-21.60Z M77.28-21.60Q82-21.60 84.50-19.34Q87-17.08 87-12.52L87-12.52L87 0L82.28 0L82.28-2.60Q81.36-1.20 79.66-0.46Q77.96 0.28 75.56 0.28L75.56 0.28Q73.16 0.28 71.36-0.54Q69.56-1.36 68.58-2.82Q67.60-4.28 67.60-6.12L67.60-6.12Q67.60-9 69.74-10.74Q71.88-12.48 76.48-12.48L76.48-12.48L82-12.48L82-12.80Q82-15.04 80.66-16.24Q79.32-17.44 76.68-17.44L76.68-17.44Q74.88-17.44 73.14-16.88Q71.40-16.32 70.20-15.32L70.20-15.32L68.24-18.96Q69.92-20.24 72.28-20.92Q74.64-21.60 77.28-21.60L77.28-21.60ZM76.60-3.36Q78.48-3.36 79.94-4.22Q81.40-5.08 82-6.68L82-6.68L82-9.16L76.84-9.16Q72.52-9.16 72.52-6.32L72.52-6.32Q72.52-4.96 73.60-4.16Q74.68-3.36 76.60-3.36L76.60-3.36Z M102.16-18.24Q104.32-21.60 109.76-21.60L109.76-21.60L109.76-16.84Q109.12-16.96 108.60-16.96L108.60-16.96Q105.68-16.96 104.04-15.26Q102.40-13.56 102.40-10.36L102.40-10.36L102.40 0L97.40 0L97.40-21.36L102.16-21.36L102.16-18.24Z M126.04-21.60Q130.76-21.60 133.26-19.34Q135.76-17.08 135.76-12.52L135.76-12.52L135.76 0L131.04 0L131.04-2.60Q130.12-1.20 128.42-0.46Q126.72 0.28 124.32 0.28L124.32 0.28Q121.92 0.28 120.12-0.54Q118.32-1.36 117.34-2.82Q116.36-4.28 116.36-6.12L116.36-6.12Q116.36-9 118.50-10.74Q120.64-12.48 125.24-12.48L125.24-12.48L130.76-12.48L130.76-12.80Q130.76-15.04 129.42-16.24Q128.08-17.44 125.44-17.44L125.44-17.44Q123.64-17.44 121.90-16.88Q120.16-16.32 118.96-15.32L118.96-15.32L117.00-18.96Q118.68-20.24 121.04-20.92Q123.40-21.60 126.04-21.60L126.04-21.60ZM125.36-3.36Q127.24-3.36 128.70-4.22Q130.16-5.08 130.76-6.68L130.76-6.68L130.76-9.16L125.60-9.16Q121.28-9.16 121.28-6.32L121.28-6.32Q121.28-4.96 122.36-4.16Q123.44-3.36 125.36-3.36L125.36-3.36Z M157.60-4.72L159-1.16Q158.12-0.44 156.86-0.08Q155.60 0.28 154.20 0.28L154.20 0.28Q150.68 0.28 148.76-1.56Q146.84-3.40 146.84-6.92L146.84-6.92L146.84-17.20L143.32-17.20L143.32-21.20L146.84-21.20L146.84-26.08L151.84-26.08L151.84-21.20L157.56-21.20L157.56-17.20L151.84-17.20L151.84-7.04Q151.84-5.48 152.60-4.66Q153.36-3.84 154.80-3.84L154.80-3.84Q156.48-3.84 157.60-4.72L157.60-4.72Z M167.12 0L167.12-21.36L172.12-21.36L172.12 0L167.12 0ZM169.64-24.88Q168.28-24.88 167.36-25.74Q166.44-26.60 166.44-27.88L166.44-27.88Q166.44-29.16 167.36-30.02Q168.28-30.88 169.64-30.88L169.64-30.88Q171-30.88 171.92-30.06Q172.84-29.24 172.84-28L172.84-28Q172.84-26.68 171.94-25.78Q171.04-24.88 169.64-24.88L169.64-24.88Z"/></g>
</svg>
</g><g opacity="1" transform="rotate(0 370.005 156.482)">
<svg width="264.995" height="38.335" x="370.005" y="156.482" version="1.1" preserveAspectRatio="none" viewBox="3.32 -28 249.40000000000003 36.08">
  <g transform="matrix(1 0 0 1 0 0)" class="companyName8b831a96-215e-41f5-89f5-fbe7b38847cb"><path id="id-8b831a96-215e-41f5-89f5-fbe7b38847cbD6z1nYkh10" d="M15.44-28Q19.16-28 21.90-26.76Q24.64-25.52 26.12-23.24Q27.60-20.96 27.60-17.84L27.60-17.84Q27.60-14.76 26.12-12.46Q24.64-10.16 21.90-8.94Q19.16-7.72 15.44-7.72L15.44-7.72L9.80-7.72L9.80 0L3.32 0L3.32-28L15.44-28ZM15.08-13Q18-13 19.52-14.26Q21.04-15.52 21.04-17.84L21.04-17.84Q21.04-20.20 19.52-21.46Q18-22.72 15.08-22.72L15.08-22.72L9.80-22.72L9.80-13L15.08-13Z M40.24-21.84Q45.24-21.84 47.92-19.46Q50.60-17.08 50.60-12.28L50.60-12.28L50.60 0L44.76 0L44.76-2.68Q43 0.32 38.20 0.32L38.20 0.32Q35.72 0.32 33.90-0.52Q32.08-1.36 31.12-2.84Q30.16-4.32 30.16-6.20L30.16-6.20Q30.16-9.20 32.42-10.92Q34.68-12.64 39.40-12.64L39.40-12.64L44.36-12.64Q44.36-14.68 43.12-15.78Q41.88-16.88 39.40-16.88L39.40-16.88Q37.68-16.88 36.02-16.34Q34.36-15.80 33.20-14.88L33.20-14.88L30.96-19.24Q32.72-20.48 35.18-21.16Q37.64-21.84 40.24-21.84L40.24-21.84ZM39.76-3.88Q41.36-3.88 42.60-4.62Q43.84-5.36 44.36-6.80L44.36-6.80L44.36-9L40.08-9Q36.24-9 36.24-6.48L36.24-6.48Q36.24-5.28 37.18-4.58Q38.12-3.88 39.76-3.88L39.76-3.88Z M62.20-18.68Q63.32-20.24 65.22-21.04Q67.12-21.84 69.60-21.84L69.60-21.84L69.60-16.08Q68.56-16.16 68.20-16.16L68.20-16.16Q65.52-16.16 64-14.66Q62.48-13.16 62.48-10.16L62.48-10.16L62.48 0L56.24 0L56.24-21.52L62.20-21.52L62.20-18.68Z M89.44-21.52L95.44-21.52L85.72 1.32Q84.24 5.04 82.06 6.56Q79.88 8.08 76.80 8.08L76.80 8.08Q75.12 8.08 73.48 7.56Q71.84 7.04 70.80 6.12L70.80 6.12L73.08 1.68Q73.80 2.32 74.74 2.68Q75.68 3.04 76.60 3.04L76.60 3.04Q77.88 3.04 78.68 2.42Q79.48 1.80 80.12 0.36L80.12 0.36L80.20 0.16L70.88-21.52L77.32-21.52L83.36-6.92L89.44-21.52Z M105.96-21.84Q110.96-21.84 113.64-19.46Q116.32-17.08 116.32-12.28L116.32-12.28L116.32 0L110.48 0L110.48-2.68Q108.72 0.32 103.92 0.32L103.92 0.32Q101.44 0.32 99.62-0.52Q97.80-1.36 96.84-2.84Q95.88-4.32 95.88-6.20L95.88-6.20Q95.88-9.20 98.14-10.92Q100.40-12.64 105.12-12.64L105.12-12.64L110.08-12.64Q110.08-14.68 108.84-15.78Q107.60-16.88 105.12-16.88L105.12-16.88Q103.40-16.88 101.74-16.34Q100.08-15.80 98.92-14.88L98.92-14.88L96.68-19.24Q98.44-20.48 100.90-21.16Q103.36-21.84 105.96-21.84L105.96-21.84ZM105.48-3.88Q107.08-3.88 108.32-4.62Q109.56-5.36 110.08-6.80L110.08-6.80L110.08-9L105.80-9Q101.96-9 101.96-6.48L101.96-6.48Q101.96-5.28 102.90-4.58Q103.84-3.88 105.48-3.88L105.48-3.88Z M134.16-5.44L135.84-1.04Q134.92-0.36 133.58-0.02Q132.24 0.32 130.76 0.32L130.76 0.32Q126.92 0.32 124.82-1.64Q122.72-3.60 122.72-7.40L122.72-7.40L122.72-16.24L119.40-16.24L119.40-21.04L122.72-21.04L122.72-26.28L128.96-26.28L128.96-21.04L134.32-21.04L134.32-16.24L128.96-16.24L128.96-7.48Q128.96-6.12 129.66-5.38Q130.36-4.64 131.64-4.64L131.64-4.64Q133.12-4.64 134.16-5.44L134.16-5.44Z M148.04-21.84Q153.04-21.84 155.72-19.46Q158.40-17.08 158.40-12.28L158.40-12.28L158.40 0L152.56 0L152.56-2.68Q150.80 0.32 146 0.32L146 0.32Q143.52 0.32 141.70-0.52Q139.88-1.36 138.92-2.84Q137.96-4.32 137.96-6.20L137.96-6.20Q137.96-9.20 140.22-10.92Q142.48-12.64 147.20-12.64L147.20-12.64L152.16-12.64Q152.16-14.68 150.92-15.78Q149.68-16.88 147.20-16.88L147.20-16.88Q145.48-16.88 143.82-16.34Q142.16-15.80 141-14.88L141-14.88L138.76-19.24Q140.52-20.48 142.98-21.16Q145.44-21.84 148.04-21.84L148.04-21.84ZM147.56-3.88Q149.16-3.88 150.40-4.62Q151.64-5.36 152.16-6.80L152.16-6.80L152.16-9L147.88-9Q144.04-9 144.04-6.48L144.04-6.48Q144.04-5.28 144.98-4.58Q145.92-3.88 147.56-3.88L147.56-3.88Z M177.12-21.84Q181.12-21.84 183.58-19.44Q186.04-17.04 186.04-12.32L186.04-12.32L186.04 0L179.80 0L179.80-11.36Q179.80-13.92 178.68-15.18Q177.56-16.44 175.44-16.44L175.44-16.44Q173.08-16.44 171.68-14.98Q170.28-13.52 170.28-10.64L170.28-10.64L170.28 0L164.04 0L164.04-21.52L170-21.52L170-19Q171.24-20.36 173.08-21.10Q174.92-21.84 177.12-21.84L177.12-21.84Z M200.36-21.84Q205.36-21.84 208.04-19.46Q210.72-17.08 210.72-12.28L210.72-12.28L210.72 0L204.88 0L204.88-2.68Q203.12 0.32 198.32 0.32L198.32 0.32Q195.84 0.32 194.02-0.52Q192.20-1.36 191.24-2.84Q190.28-4.32 190.28-6.20L190.28-6.20Q190.28-9.20 192.54-10.92Q194.80-12.64 199.52-12.64L199.52-12.64L204.48-12.64Q204.48-14.68 203.24-15.78Q202-16.88 199.52-16.88L199.52-16.88Q197.80-16.88 196.14-16.34Q194.48-15.80 193.32-14.88L193.32-14.88L191.08-19.24Q192.84-20.48 195.30-21.16Q197.76-21.84 200.36-21.84L200.36-21.84ZM199.88-3.88Q201.48-3.88 202.72-4.62Q203.96-5.36 204.48-6.80L204.48-6.80L204.48-9L200.20-9Q196.36-9 196.36-6.48L196.36-6.48Q196.36-5.28 197.30-4.58Q198.24-3.88 199.88-3.88L199.88-3.88Z M243.92-21.84Q247.96-21.84 250.34-19.46Q252.72-17.08 252.72-12.32L252.72-12.32L252.72 0L246.48 0L246.48-11.36Q246.48-13.92 245.42-15.18Q244.36-16.44 242.40-16.44L242.40-16.44Q240.20-16.44 238.92-15.02Q237.64-13.60 237.64-10.80L237.64-10.80L237.64 0L231.40 0L231.40-11.36Q231.40-16.44 227.32-16.44L227.32-16.44Q225.16-16.44 223.88-15.02Q222.60-13.60 222.60-10.80L222.60-10.80L222.60 0L216.36 0L216.36-21.52L222.32-21.52L222.32-19.04Q223.52-20.40 225.26-21.12Q227.00-21.84 229.08-21.84L229.08-21.84Q231.36-21.84 233.20-20.94Q235.04-20.04 236.16-18.32L236.16-18.32Q237.48-20 239.50-20.92Q241.52-21.84 243.92-21.84L243.92-21.84Z"/></g>
</svg>
</g><g opacity="1" transform="rotate(0 296.4027 117.2268)">
<svg width="124.8081" height="82.7906" x="296.4027" y="117.2268" version="1.1" preserveAspectRatio="none" viewBox="10.002506256103516 40.299217224121094 179.99749755859375 119.3998031616211">
  <g transform="matrix(1 0 0 1 0 0)"><g><path d="m30.26 75.982-3.67-.954a.997.997 0 0 1-.714-1.216l.954-3.67a6.191 6.191 0 0 1 7.55-4.434l3.67.954a.997.997 0 0 1 .714 1.216l-.954 3.67a6.192 6.192 0 0 1-7.55 4.434z" data-color="1" class="aMcvEAJD5Dcolors-08b831a96-215e-41f5-89f5-fbe7b38847cb"></path><path d="m77.84 81.955.954-3.67a.997.997 0 0 1 1.216-.714l3.67.954a6.191 6.191 0 0 1 4.434 7.55l-.954 3.67a.997.997 0 0 1-1.216.714l-3.67-.954a6.191 6.191 0 0 1-4.434-7.55z" data-color="1" class="aMcvEAJD5Dcolors-08b831a96-215e-41f5-89f5-fbe7b38847cb"></path><path d="m68.553 142.28 3.67.954a.997.997 0 0 1 .714 1.216l-.954 3.67a6.191 6.191 0 0 1-7.55 4.434l-3.67-.954a.997.997 0 0 1-.714-1.216l.954-3.67a6.191 6.191 0 0 1 7.55-4.434z" data-color="1" class="aMcvEAJD5Dcolors-08b831a96-215e-41f5-89f5-fbe7b38847cb"></path><path d="m20.973 136.307-.954 3.67a.997.997 0 0 1-1.216.714l-3.67-.954a6.191 6.191 0 0 1-4.434-7.55l.954-3.67a.997.997 0 0 1 1.216-.714l3.67.954a6.19 6.19 0 0 1 4.434 7.55z" data-color="1" class="aMcvEAJD5Dcolors-08b831a96-215e-41f5-89f5-fbe7b38847cb"></path><path d="m62.958 152.686 1.35.351a6.712 6.712 0 0 0 1.634.214l-.008.004H190l-118.683-2.486-.209.097a6.658 6.658 0 0 0 1.359-2.621l.954-3.67a1.485 1.485 0 0 0-.204-1.196l13.671-52.581c.357-.19.646-.506.756-.928l.954-3.67c.45-1.729.199-3.53-.706-5.071s-2.356-2.637-4.085-3.087l-3.67-.954a1.486 1.486 0 0 0-1.197.204l-8.79-2.285 6.796-26.141.175-.673v-.002l.024-.093c.009-.033.004-.065.005-.097a2.85 2.85 0 0 0-2.075-3.29l-16.608-4.318a2.831 2.831 0 0 0-3.415 1.862c-.014.03-.034.056-.043.089l-.144.556-.195.748v.001l-6.656 25.603-8.892-2.312c-.012-.023-.02-.049-.033-.072a1.492 1.492 0 0 0-.913-.69l-3.67-.954c-3.57-.93-7.23 1.221-8.159 4.791l-.954 3.67c-.101.387-.045.79.158 1.135.013.021.035.034.048.054l-13.668 52.571c-.363.189-.65.52-.761.946l-.954 3.67a6.698 6.698 0 0 0 4.791 8.158l1.222.317-1.23 4.73a3.061 3.061 0 0 0 2.186 3.722 3.06 3.06 0 0 0 3.722-2.186l1.355-5.213 34.913 9.077-1.355 5.213a3.06 3.06 0 0 0 2.186 3.722c.239.062.478.085.715.089l-.006.009h85.391l-82.335-2.449 1.187-4.564zm16.703-63.939-.005-.011a.2.2 0 0 1 .016.014l-.011-.003zm-1.339-6.667.954-3.67a.5.5 0 0 1 .608-.357l3.67.954a5.657 5.657 0 0 1 3.477 2.627 5.655 5.655 0 0 1 .601 4.316l-.954 3.67a.497.497 0 0 1-.608.357l-3.67-.954a5.655 5.655 0 0 1-3.477-2.627 5.655 5.655 0 0 1-.601-4.316zm-57.87 48.823.001.009-.009-.015.008.006zm-8.67 5.725a5.655 5.655 0 0 1-.601-4.316l.954-3.67a.5.5 0 0 1 .608-.356l3.67.954a5.699 5.699 0 0 1 4.077 6.942l-.954 3.67a.497.497 0 0 1-.608.357l-3.67-.954a5.659 5.659 0 0 1-3.476-2.627zm26.5-68.876-.954 3.67a5.699 5.699 0 0 1-6.942 4.077l-3.67-.954a.494.494 0 0 1-.304-.23.495.495 0 0 1-.053-.378l.954-3.67a5.7 5.7 0 0 1 6.942-4.077l3.67.954a.499.499 0 0 1 .357.608zm33.816 75.965a.498.498 0 0 1 .357.608l-.954 3.67a5.656 5.656 0 0 1-2.627 3.476 5.655 5.655 0 0 1-4.315.601l-3.67-.954a.498.498 0 0 1-.357-.608l.954-3.67a5.704 5.704 0 0 1 5.51-4.261c.473 0 .953.059 1.432.184l3.67.954zM55.51 44.382l20.205 5.253-6.531 25.121-20.205-5.253 6.531-25.121z" data-color="2" class="aMcvEAJD5Dcolors-18b831a96-215e-41f5-89f5-fbe7b38847cb"></path><path d="M43.282 115.15c-1.654-.693-3.596-1.048-5.652-1.048-1.021 0-2.069.088-3.125.264-3.185.532-6.042 1.807-8.046 3.593-1.94 1.729-2.835 3.723-2.519 5.613.316 1.89 1.809 3.485 4.206 4.49 2.476 1.038 5.592 1.316 8.776.784 3.185-.532 6.042-1.807 8.046-3.593 1.94-1.729 2.835-3.723 2.52-5.613-.315-1.89-1.809-3.485-4.206-4.49z" data-color="1" class="aMcvEAJD5Dcolors-08b831a96-215e-41f5-89f5-fbe7b38847cb"></path><path d="M43.986 79.698c-6.361 0-11.536 5.175-11.536 11.536s5.175 11.536 11.536 11.536 11.537-5.175 11.537-11.536-5.176-11.536-11.537-11.536z" data-color="1" class="aMcvEAJD5Dcolors-08b831a96-215e-41f5-89f5-fbe7b38847cb"></path><path d="m65.312 128.43 12.703-7.46 2.265-8.697-7.463-12.707a2.38 2.38 0 0 0-1.465-1.106 2.385 2.385 0 0 0-1.818.253l-16.116 9.465a2.377 2.377 0 0 0-1.107 1.465 2.385 2.385 0 0 0 .253 1.818l9.465 16.115c.324.552.844.946 1.465 1.107a2.38 2.38 0 0 0 1.818-.253z" data-color="1" class="aMcvEAJD5Dcolors-08b831a96-215e-41f5-89f5-fbe7b38847cb"></path><path d="m42.561 119.957-13.414 2.24a.5.5 0 0 0 .164.984l13.414-2.24a.5.5 0 0 0-.164-.984z" data-color="2" class="aMcvEAJD5Dcolors-18b831a96-215e-41f5-89f5-fbe7b38847cb"></path><path d="M47.163 90.436c.519 0 .94-.921.94-2.058 0-1.137-.421-2.058-.94-2.058-.519 0-.94.921-.94 2.058 0 1.136.421 2.058.94 2.058z" data-color="2" class="aMcvEAJD5Dcolors-18b831a96-215e-41f5-89f5-fbe7b38847cb"></path><path d="M40.81 90.436c.519 0 .94-.921.94-2.058 0-1.137-.421-2.058-.94-2.058-.519 0-.94.921-.94 2.058 0 1.136.421 2.058.94 2.058z" data-color="2" class="aMcvEAJD5Dcolors-18b831a96-215e-41f5-89f5-fbe7b38847cb"></path><path d="M51.865 90.245a.5.5 0 0 0-.499.499c0 4.07-3.311 7.38-7.38 7.38s-7.38-3.31-7.38-7.38a.5.5 0 0 0-.998 0c0 4.62 3.758 8.377 8.377 8.377s8.377-3.758 8.377-8.377a.497.497 0 0 0-.497-.499z" data-color="2" class="aMcvEAJD5Dcolors-18b831a96-215e-41f5-89f5-fbe7b38847cb"></path><path d="m76.945 112.459-1.726-.448-2.07 1.654-6.794-1.766 3.84-5.297-1.641-.427-6.25 4.67-4.23-1.1a1.35 1.35 0 1 0-.679 2.616l4.23 1.099 3.184 7.123 1.641.427-.774-6.497 6.794 1.767 1.002 2.453 1.726.449-1.08-3.87 2.827-2.853z" data-color="2" class="aMcvEAJD5Dcolors-18b831a96-215e-41f5-89f5-fbe7b38847cb"></path></g></g>
</svg>
</g></svg></svg>